<?xml version="1.0" standalone="no"?>
<!DOCTYPE svg PUBLIC "-//W3C//DTD SVG 20010904//EN"
 "http://www.w3.org/TR/2001/REC-SVG-20010904/DTD/svg10.dtd">
<svg version="1.0" xmlns="http://www.w3.org/2000/svg"
 width="1024.000000pt" height="1024.000000pt" viewBox="0 0 1024.000000 1024.000000"
 preserveAspectRatio="xMidYMid meet">
<metadata>
Created by potrace 1.16, written by Peter Selinger 2001-2019
</metadata>
<g transform="translate(0.000000,1024.000000) scale(0.100000,-0.100000)"
fill="#000000" stroke="none">
<path d="M4982 8722 c-13 -2 -26 -10 -28 -17 -3 -8 -12 -11 -20 -8 -8 3 -14 1
-14 -4 0 -5 -16 -16 -36 -23 -20 -8 -42 -24 -50 -34 -10 -15 -14 -16 -14 -6
-1 10 -7 8 -20 -9 -11 -13 -20 -20 -20 -17 0 3 -9 -3 -20 -14 -12 -12 -25 -18
-30 -15 -6 4 -10 1 -10 -5 0 -6 -4 -8 -10 -5 -5 3 -10 1 -10 -5 0 -6 -4 -8
-10 -5 -5 3 -10 1 -10 -5 0 -7 -6 -10 -12 -8 -7 3 -18 0 -25 -6 -33 -29 -41
-34 -47 -29 -3 4 -6 1 -6 -6 0 -7 -5 -9 -10 -6 -6 3 -13 -1 -16 -9 -3 -9 -10
-13 -15 -10 -5 3 -9 0 -9 -6 0 -6 -4 -8 -10 -5 -5 3 -10 1 -10 -5 0 -6 -4 -9
-9 -6 -5 3 -11 -1 -15 -9 -3 -8 -12 -12 -20 -9 -8 3 -24 -4 -35 -15 -12 -12
-30 -21 -41 -21 -11 0 -19 -5 -18 -11 2 -6 -6 -13 -17 -15 -11 -1 -21 -8 -23
-14 -2 -5 -8 -8 -13 -4 -5 3 -9 0 -9 -6 0 -6 -4 -9 -9 -5 -6 3 -14 -3 -20 -12
-6 -10 -11 -14 -11 -10 0 5 -7 1 -16 -8 -9 -9 -23 -14 -30 -11 -7 3 -20 -4
-27 -14 -8 -11 -17 -17 -20 -13 -4 3 -7 1 -7 -6 0 -7 -4 -9 -10 -6 -5 3 -10 1
-10 -5 0 -6 -4 -9 -9 -5 -5 3 -12 1 -16 -5 -3 -5 -15 -10 -25 -10 -10 0 -25
-9 -33 -20 -8 -11 -17 -17 -20 -13 -4 3 -7 1 -7 -5 0 -6 -6 -9 -14 -6 -8 3
-19 -3 -26 -16 -6 -11 -15 -18 -21 -15 -5 4 -9 1 -9 -5 0 -6 -4 -8 -10 -5 -5
3 -10 1 -10 -5 0 -6 -4 -8 -10 -5 -5 3 -10 1 -10 -6 0 -7 -3 -10 -6 -7 -8 9
-181 -85 -196 -107 -4 -5 -8 -6 -8 -1 0 6 -7 1 -16 -10 -8 -10 -12 -13 -9 -6
7 14 -29 -4 -110 -53 -22 -13 -52 -29 -68 -36 -15 -6 -32 -19 -37 -30 -7 -11
-16 -16 -27 -12 -10 4 -14 2 -9 -5 3 -6 -3 -14 -16 -18 -13 -4 -24 -5 -25 -3
-1 2 -9 -5 -17 -16 -9 -12 -15 -15 -16 -7 0 7 -5 10 -10 7 -6 -4 -7 -11 -4
-17 4 -6 2 -8 -4 -4 -6 3 -13 2 -17 -4 -3 -5 -15 -10 -25 -10 -11 0 -24 -9
-30 -20 -6 -11 -15 -18 -21 -15 -5 4 -9 2 -9 -4 0 -5 -20 -17 -45 -27 -25 -9
-45 -21 -45 -26 0 -6 -8 -7 -17 -4 -10 4 -14 4 -10 0 7 -7 -41 -33 -72 -40 -7
-1 -24 -13 -37 -25 -13 -12 -24 -19 -24 -14 0 5 -9 -1 -21 -14 -12 -12 -28
-20 -36 -17 -8 4 -11 1 -8 -5 4 -6 -1 -9 -11 -7 -11 2 -18 -2 -16 -9 2 -13
-10 -17 -36 -14 -7 1 -15 -5 -18 -13 -3 -9 -9 -14 -14 -11 -4 2 -16 -4 -26
-14 -11 -9 -26 -15 -33 -13 -8 3 -11 0 -7 -7 6 -10 -6 -15 -26 -12 -5 0 -8 -4
-8 -10 0 -5 -5 -7 -12 -3 -6 4 -8 3 -5 -3 7 -10 -45 -37 -71 -38 -7 0 -16 -6
-21 -13 -5 -8 -12 -13 -17 -13 -19 2 -44 -11 -39 -20 3 -5 -1 -6 -9 -3 -9 4
-18 -1 -22 -10 -3 -9 -9 -14 -13 -12 -13 8 -52 -14 -45 -25 4 -7 3 -9 -4 -5
-6 3 -17 0 -25 -8 -8 -8 -17 -12 -21 -9 -3 4 -6 1 -6 -6 0 -7 -4 -9 -10 -6 -5
3 -10 1 -10 -5 0 -6 -4 -9 -9 -6 -5 3 -11 -1 -15 -9 -3 -9 -12 -12 -22 -8 -12
4 -15 3 -10 -5 7 -12 -5 -16 -32 -13 -6 1 -12 -3 -12 -9 0 -5 -7 -10 -16 -10
-8 0 -12 -4 -9 -10 3 -5 -1 -10 -9 -10 -24 0 -27 -1 -86 -33 -30 -16 -63 -39
-73 -51 -10 -11 -16 -14 -12 -6 4 10 2 9 -8 -2 -8 -10 -17 -15 -20 -12 -7 7
-97 -45 -97 -57 0 -5 -3 -8 -7 -7 -14 4 -53 -13 -53 -23 0 -5 -3 -8 -7 -7 -5
1 -21 -5 -38 -15 -16 -9 -27 -16 -22 -17 4 0 -11 -16 -32 -36 -23 -20 -38 -41
-35 -49 3 -7 -4 -19 -16 -25 -14 -7 -19 -17 -15 -27 3 -9 1 -19 -5 -23 -7 -4
-10 -581 -10 -1855 0 -1467 -2 -1851 -12 -1863 -10 -13 -10 -14 -1 -8 10 5 12
-4 11 -34 -1 -24 4 -45 11 -49 7 -4 13 -20 15 -34 1 -15 10 -35 19 -45 10 -10
15 -21 12 -23 -6 -7 62 -79 74 -79 5 0 14 -6 20 -14 7 -8 38 -27 69 -42 31
-15 64 -33 72 -40 8 -6 42 -26 75 -44 94 -50 120 -65 125 -71 3 -3 37 -23 76
-45 67 -37 201 -113 234 -134 40 -25 147 -87 160 -93 8 -4 33 -18 55 -32 22
-14 51 -30 65 -37 14 -6 32 -17 40 -24 8 -6 60 -35 115 -64 55 -30 106 -60
113 -67 7 -7 18 -13 23 -13 5 0 26 -11 47 -23 20 -13 69 -41 107 -62 39 -21
76 -42 83 -48 7 -5 27 -18 45 -27 40 -22 84 -47 162 -90 33 -18 72 -41 87 -52
14 -10 30 -18 34 -18 4 0 15 -6 23 -14 14 -11 55 -35 191 -108 19 -10 49 -27
65 -38 17 -11 47 -29 68 -40 73 -39 112 -61 132 -73 11 -7 43 -25 70 -40 28
-15 68 -38 90 -51 22 -13 65 -37 95 -52 30 -16 57 -32 60 -35 5 -6 109 -64
215 -120 33 -17 65 -35 70 -39 6 -4 42 -25 80 -45 39 -21 77 -43 85 -50 56
-47 226 -70 307 -41 39 14 215 107 278 146 17 11 77 45 135 76 58 32 107 61
110 65 3 4 17 12 30 18 36 15 116 63 140 83 11 10 20 16 20 13 0 -7 121 58
205 110 22 14 69 41 105 60 36 20 79 44 95 54 17 10 46 27 65 38 19 11 59 34
88 52 29 17 56 31 59 31 4 0 14 6 22 14 9 7 45 29 81 48 36 19 89 49 118 66
29 18 57 32 62 32 5 0 15 6 22 13 7 7 42 29 78 48 65 35 87 48 145 85 17 10
32 19 35 19 5 0 15 6 75 42 11 7 58 34 105 60 47 27 93 53 102 58 95 57 212
123 258 147 14 7 27 15 30 19 3 3 41 25 85 49 44 24 88 50 98 58 9 8 17 12 17
8 0 -4 16 5 35 20 19 14 35 23 35 19 0 -5 8 -1 18 7 9 9 33 24 52 33 19 10 37
21 40 24 3 4 30 20 60 35 91 47 119 63 215 125 37 24 79 66 73 73 -1 2 6 12
15 23 9 11 16 22 16 25 -1 3 8 24 19 47 l22 42 -3 1894 c-2 1792 -3 1894 -20
1911 -9 10 -15 22 -11 27 15 24 -76 120 -153 161 -121 65 -168 88 -180 88 -7
0 -13 5 -13 11 0 5 -4 8 -9 5 -5 -3 -12 1 -15 10 -3 8 -10 12 -16 9 -5 -3 -10
-1 -10 6 0 7 -3 9 -7 6 -3 -4 -11 0 -17 7 -6 8 -54 36 -106 62 -52 26 -98 52
-101 57 -4 5 -13 6 -20 2 -8 -5 -10 -4 -6 0 8 9 -3 16 -106 68 -30 15 -71 39
-92 52 -20 14 -40 23 -45 20 -5 -3 -17 3 -27 13 -10 10 -43 31 -73 47 -30 15
-66 36 -79 46 -13 11 -29 19 -35 19 -6 0 -22 8 -36 17 -13 9 -33 18 -44 18
-11 1 -22 7 -24 14 -2 6 -8 9 -13 5 -5 -3 -9 0 -9 6 0 10 -51 35 -58 28 -2 -2
-8 5 -13 15 -6 9 -15 17 -20 17 -6 0 -24 9 -40 21 -16 11 -33 17 -39 14 -5 -3
-10 -1 -10 5 0 6 -4 9 -10 5 -5 -3 -18 3 -29 14 -11 11 -22 17 -25 14 -3 -4
-6 -1 -6 6 0 7 -4 9 -10 6 -5 -3 -10 -1 -10 4 0 13 -95 62 -104 54 -3 -4 -6
-1 -6 6 0 11 -47 36 -62 33 -5 -1 -8 3 -8 10 0 6 -3 9 -6 5 -3 -3 -14 3 -25
14 -11 11 -23 17 -28 15 -4 -3 -17 3 -27 12 -18 17 -74 50 -193 114 -60 33
-183 101 -216 121 -57 34 -70 41 -75 40 -3 0 -16 7 -30 17 -14 9 -38 24 -55
32 -43 21 -108 59 -122 70 -7 5 -16 7 -22 4 -5 -3 -11 0 -14 8 -3 7 -28 24
-56 37 -28 12 -51 26 -51 30 0 7 -36 19 -54 18 -5 -1 -13 6 -18 14 -4 9 -22
18 -38 22 -17 4 -30 11 -30 16 0 5 -11 14 -25 19 -14 5 -51 26 -81 45 -31 20
-58 34 -61 31 -3 -3 -14 4 -26 14 -11 11 -24 17 -29 14 -4 -3 -8 0 -8 6 0 6
-4 9 -9 6 -5 -3 -11 0 -14 7 -2 6 -35 28 -73 47 -38 19 -72 39 -75 44 -4 5
-12 5 -19 1 -9 -6 -11 -4 -5 5 6 10 4 12 -8 7 -9 -3 -17 -1 -20 6 -2 8 -42 12
-133 12 -71 1 -139 -1 -152 -3z m307 -44 c36 -19 219 -120 406 -224 187 -105
367 -206 400 -224 33 -18 116 -65 185 -103 69 -39 163 -91 210 -117 47 -26
229 -127 405 -224 176 -98 408 -227 515 -286 107 -59 296 -164 420 -232 124
-69 293 -162 377 -207 167 -91 208 -126 252 -220 l26 -56 3 -1815 c2 -1200 -1
-1838 -8 -1882 -25 -162 -67 -205 -370 -377 -204 -116 -1240 -709 -1845 -1056
-132 -76 -337 -193 -455 -260 -118 -68 -287 -164 -375 -214 -88 -50 -178 -96
-200 -103 -53 -15 -161 -14 -210 2 -71 23 -526 280 -2800 1583 -181 104 -347
205 -367 224 -20 20 -49 63 -65 97 l-28 61 0 1880 0 1880 32 60 c43 83 77 112
238 200 77 43 160 89 185 102 43 24 609 335 926 509 83 45 254 141 380 211
126 71 258 145 294 165 266 144 399 222 395 229 -3 4 0 11 6 15 8 4 9 3 5 -4
-4 -7 -4 -12 1 -12 20 0 348 190 345 200 -1 6 2 8 8 5 6 -4 97 41 203 100 106
59 210 114 232 121 25 8 71 12 124 10 71 -3 93 -9 150 -38z"/>
<path d="M4990 8460 c-383 -210 -764 -426 -767 -435 -4 -14 867 -525 896 -525
13 0 479 267 705 404 87 53 162 96 167 96 5 0 9 4 9 10 0 13 -43 6 -48 -8 -2
-6 -10 -8 -19 -5 -11 4 -14 2 -9 -5 4 -7 2 -13 -3 -13 -35 -4 -79 -27 -89 -46
-6 -10 -13 -17 -16 -15 -15 6 -26 1 -20 -10 5 -8 2 -9 -9 -5 -11 4 -22 -2 -32
-16 -8 -12 -15 -18 -15 -14 0 5 -18 -2 -40 -14 -21 -12 -37 -26 -34 -31 3 -5
-2 -8 -12 -6 -11 2 -18 -2 -17 -8 1 -7 -13 -15 -33 -18 -19 -4 -40 -15 -46
-25 -7 -11 -18 -17 -26 -13 -9 3 -13 1 -9 -5 7 -11 -41 -38 -62 -34 -7 1 -10
-2 -7 -8 4 -6 -11 -15 -33 -21 -22 -6 -44 -18 -49 -26 -5 -9 -12 -15 -15 -15
-16 3 -78 -29 -83 -43 -3 -9 -12 -12 -21 -9 -11 4 -14 2 -9 -5 6 -11 -6 -17
-27 -13 -4 1 -10 -6 -13 -14 -3 -8 -11 -12 -17 -8 -5 3 -16 -3 -24 -13 -8 -10
-16 -18 -18 -16 -12 6 -26 1 -20 -8 3 -5 2 -10 -3 -10 -6 0 -12 6 -15 13 -3 8
-25 24 -49 36 -23 12 -58 30 -76 41 -19 12 -31 15 -27 8 4 -7 -1 -4 -9 6 -9
11 -16 16 -16 12 0 -4 -7 0 -16 8 -8 9 -20 13 -26 10 -6 -4 -8 -2 -4 4 7 11
-101 75 -114 67 -4 -3 -10 2 -14 10 -3 9 -12 12 -22 8 -12 -4 -15 -3 -10 6 4
6 4 10 -1 9 -15 -4 -53 13 -48 22 3 5 -3 11 -14 15 -11 3 -36 17 -55 30 -20
13 -36 22 -36 18 0 -3 -8 1 -17 10 -10 8 -25 17 -33 19 -8 2 -23 11 -33 20
-23 20 -89 53 -99 50 -5 -1 -8 2 -8 6 0 13 -79 62 -99 62 -9 0 -26 7 -37 15
-19 14 -18 14 4 15 12 0 22 5 22 11 0 5 4 7 10 4 5 -3 22 2 37 12 38 25 61 39
103 61 19 10 53 29 75 42 22 13 67 37 100 54 33 18 71 39 85 48 14 8 50 29 80
45 30 17 73 40 95 53 91 52 182 102 222 121 l41 19 99 -51 c154 -81 178 -94
183 -100 3 -3 34 -20 70 -38 36 -18 72 -39 80 -46 8 -7 42 -27 75 -44 33 -17
83 -44 110 -61 28 -16 64 -36 81 -44 17 -7 50 -26 75 -42 69 -45 86 -52 98
-44 7 4 -115 78 -291 177 -364 205 -351 198 -480 267 l-103 55 -125 -69z"/>
<path d="M3615 7689 c-203 -115 -398 -224 -432 -242 -35 -18 -63 -39 -63 -47
0 -9 83 -64 203 -134 111 -66 299 -177 417 -247 118 -70 227 -133 242 -139 31
-14 56 -1 781 422 64 38 117 73 117 78 0 12 -59 51 -260 168 -141 81 -629 353
-633 351 -1 0 -168 -94 -372 -210z m474 129 c53 -29 110 -60 126 -70 17 -9 55
-30 85 -45 30 -15 57 -30 60 -33 3 -3 24 -14 48 -24 23 -11 42 -23 42 -28 0
-4 6 -8 13 -8 7 0 46 -20 86 -45 40 -25 75 -45 77 -45 3 0 31 -17 63 -38 31
-21 86 -53 121 -70 55 -28 66 -38 38 -33 -5 0 -8 -4 -8 -9 0 -6 -9 -10 -20
-10 -11 0 -23 -7 -26 -15 -4 -8 -10 -12 -15 -9 -5 3 -12 -2 -15 -10 -3 -9 -10
-13 -15 -10 -5 3 -9 1 -9 -5 0 -6 -10 -15 -21 -22 -16 -8 -20 -8 -14 1 6 9 2
9 -14 1 -11 -7 -21 -16 -21 -21 0 -5 -6 -7 -14 -4 -8 3 -20 -3 -27 -14 -7 -11
-18 -18 -25 -15 -7 2 -23 -6 -36 -19 -12 -12 -28 -22 -35 -20 -7 1 -17 -7 -23
-18 -6 -11 -14 -19 -18 -16 -4 2 -23 -4 -42 -15 -19 -10 -30 -18 -25 -19 6 0
-3 -9 -19 -19 -17 -11 -33 -18 -38 -15 -4 3 -8 0 -8 -5 0 -6 -7 -11 -15 -11
-8 0 -15 -4 -15 -10 0 -5 -6 -7 -14 -4 -8 3 -20 -3 -27 -14 -7 -12 -19 -18
-27 -14 -10 3 -13 1 -8 -6 6 -11 0 -14 -21 -11 -3 0 -10 -6 -15 -15 -5 -9 -15
-13 -25 -9 -10 4 -14 2 -10 -4 4 -6 0 -14 -9 -17 -10 -4 -13 -2 -9 7 4 6 1 5
-7 -3 -7 -8 -20 -16 -28 -18 -8 -2 -20 -10 -26 -17 -6 -8 -14 -12 -17 -8 -4 3
-7 1 -7 -5 0 -7 -3 -11 -7 -11 -21 3 -33 -2 -27 -13 4 -6 3 -8 -4 -4 -6 3 -18
-1 -27 -11 -16 -16 -18 -16 -27 0 -10 19 -68 52 -68 40 0 -5 -5 0 -11 10 -5 9
-19 17 -29 17 -11 0 -28 8 -38 18 -33 31 -79 61 -106 68 -15 3 -23 11 -19 17
4 6 0 8 -11 4 -9 -4 -15 -3 -12 1 3 5 -17 19 -44 33 -27 13 -50 28 -50 33 0 4
-7 5 -16 2 -8 -3 -12 -2 -9 4 3 6 3 10 -2 11 -30 3 -46 10 -63 31 -11 12 -19
19 -20 15 0 -5 -12 1 -26 12 -15 11 -30 18 -35 15 -5 -3 -9 -1 -9 3 0 5 -9 14
-21 21 -17 11 -20 11 -14 0 3 -7 0 -5 -8 4 -8 10 -17 15 -20 11 -4 -3 -7 0 -7
7 0 7 -3 11 -6 7 -3 -3 -17 5 -31 19 -21 21 -29 25 -49 24 -3 -1 -13 7 -22 18
-9 10 -12 11 -7 3 6 -9 -11 2 -38 24 l-47 39 27 15 c16 8 54 29 85 46 48 25
180 99 318 178 19 11 60 34 90 50 30 16 66 37 80 47 14 9 40 22 58 29 17 8 32
17 32 22 0 5 6 9 13 9 7 0 37 16 67 35 30 19 59 35 64 35 5 0 52 -24 105 -52z"/>
<path d="M6190 7872 c-25 -16 -119 -68 -210 -117 -337 -181 -620 -349 -620
-369 0 -12 201 -133 395 -239 55 -30 169 -95 253 -146 84 -50 173 -101 197
-113 l44 -21 108 65 c121 74 463 274 652 382 69 39 126 76 128 82 2 6 -81 57
-184 114 -103 56 -301 167 -439 246 -139 79 -258 144 -265 144 -8 0 -34 -13
-59 -28z m175 -58 c38 -21 82 -46 96 -54 15 -8 62 -35 104 -60 86 -50 189
-107 250 -139 22 -12 57 -31 78 -44 95 -56 199 -107 217 -107 11 0 20 -4 20
-9 0 -9 -60 -37 -72 -33 -5 1 -8 -3 -8 -9 0 -6 -7 -9 -15 -5 -8 3 -14 0 -12
-7 1 -7 -4 -11 -10 -10 -7 2 -13 -1 -13 -5 0 -4 -10 -8 -22 -9 -13 -1 -30 -10
-38 -20 -18 -22 -97 -72 -86 -55 4 6 -6 4 -23 -5 -16 -10 -27 -22 -24 -27 3
-5 1 -6 -5 -2 -6 4 -20 -2 -30 -12 -10 -10 -24 -16 -32 -14 -7 3 -10 0 -6 -7
4 -6 1 -11 -8 -11 -9 0 -16 -5 -16 -11 0 -5 -4 -7 -10 -4 -13 8 -52 -19 -42
-30 4 -5 2 -5 -5 -1 -6 3 -21 -3 -32 -15 -11 -12 -24 -18 -32 -14 -8 5 -10 4
-5 -3 7 -12 -5 -16 -32 -13 -7 1 -11 -4 -10 -10 2 -7 -10 -17 -27 -23 -16 -6
-36 -18 -43 -26 -12 -13 -13 -13 -7 0 4 8 -1 6 -9 -4 -9 -11 -16 -16 -16 -11
0 5 -7 0 -16 -11 -8 -10 -13 -12 -9 -4 4 10 2 9 -8 -2 -8 -10 -19 -18 -26 -18
-6 0 -11 -4 -11 -10 0 -5 -3 -9 -7 -9 -26 4 -43 -3 -43 -18 0 -9 -3 -13 -7
-10 -3 4 -12 -1 -20 -11 -9 -11 -12 -11 -7 -2 6 12 4 13 -7 3 -23 -23 -62 -13
-111 25 -9 8 -22 11 -29 6 -8 -5 -10 -3 -4 6 6 10 4 12 -8 7 -10 -3 -17 -2
-17 3 0 6 -6 10 -14 10 -8 0 -16 7 -20 15 -3 8 -12 15 -21 15 -8 0 -15 5 -15
11 0 6 -7 8 -16 5 -8 -3 -13 -2 -10 3 5 7 -28 22 -43 20 -2 -1 -8 6 -13 15 -5
9 -13 14 -19 11 -5 -4 -9 -1 -9 5 0 6 -8 14 -17 17 -10 4 -42 21 -71 40 -29
18 -57 31 -62 28 -4 -3 -10 1 -13 9 -3 7 -28 24 -56 37 -28 12 -51 26 -51 30
0 7 -50 24 -63 20 -5 -1 -6 3 -3 8 6 9 -48 36 -59 30 -4 -2 -11 4 -16 14 -6 9
-17 17 -24 17 -8 0 -15 4 -15 8 0 5 -18 17 -39 27 -49 22 -59 43 -26 51 14 3
25 9 25 14 0 4 18 15 40 25 22 10 40 22 40 27 0 4 4 8 10 8 5 0 33 15 62 33
53 34 129 76 263 147 39 21 90 49 115 62 25 14 77 42 115 63 39 20 92 52 120
71 48 32 50 32 70 15 11 -10 51 -35 90 -57z"/>
<path d="M2825 7261 c-81 -49 -404 -229 -605 -336 -124 -66 -226 -127 -228
-135 -2 -15 44 -45 303 -198 174 -103 606 -342 617 -342 6 0 56 30 112 66 55
36 151 93 211 127 272 149 521 289 530 298 13 13 -15 37 -132 107 -114 70
-763 432 -772 432 -3 0 -19 -9 -36 -19z m67 -21 c13 -6 41 -21 63 -35 22 -13
54 -31 70 -40 17 -8 66 -36 110 -60 44 -25 91 -50 105 -57 14 -7 36 -20 50
-29 14 -9 61 -36 105 -59 44 -24 92 -51 107 -62 14 -10 30 -18 35 -18 4 0 35
-18 68 -40 33 -22 63 -40 68 -40 4 0 17 -9 29 -20 12 -11 30 -20 40 -20 27 0
22 -17 -8 -24 -15 -4 -33 -14 -41 -22 -9 -8 -22 -13 -30 -10 -7 3 -16 -1 -19
-9 -4 -8 -10 -12 -15 -10 -4 3 -17 -3 -28 -14 -11 -11 -22 -17 -25 -13 -3 3
-6 0 -6 -6 0 -7 -3 -11 -7 -10 -13 5 -145 -65 -150 -79 -3 -7 -9 -11 -13 -8
-12 8 -41 -6 -34 -16 3 -5 -2 -9 -10 -9 -9 0 -16 -5 -16 -11 0 -5 -5 -7 -11
-3 -6 3 -24 -3 -40 -15 -15 -11 -33 -21 -39 -21 -6 0 -8 -4 -5 -10 3 -5 0 -7
-9 -4 -9 3 -20 -3 -27 -14 -7 -12 -19 -18 -27 -14 -9 3 -13 1 -9 -5 8 -13 -20
-26 -35 -16 -7 3 -8 1 -4 -5 5 -8 -2 -12 -18 -12 -17 0 -26 -6 -26 -16 0 -8
-4 -13 -8 -10 -5 3 -18 -3 -29 -14 -12 -10 -23 -16 -26 -13 -8 7 -58 -32 -52
-41 3 -3 2 -4 -1 -1 -4 2 -16 -2 -28 -10 -23 -16 -66 -20 -66 -6 0 5 -7 12
-16 15 -10 4 -13 2 -8 -6 4 -6 -8 0 -28 15 -19 15 -38 24 -41 20 -4 -3 -7 -1
-7 5 0 10 -14 18 -95 60 -16 8 -36 20 -44 26 -7 6 -19 11 -25 12 -6 0 -17 2
-24 2 -7 1 -10 7 -7 12 6 9 2 12 -27 14 -7 1 -24 11 -38 24 -14 12 -31 20 -38
17 -7 -3 -10 0 -7 5 6 9 -8 14 -27 11 -5 0 -8 3 -8 9 0 6 -3 9 -7 9 -20 -3
-34 2 -28 11 3 6 1 10 -4 10 -22 0 -26 2 -34 16 -4 8 -13 14 -18 14 -6 0 -24
9 -40 21 -16 11 -39 22 -51 24 -13 3 -29 12 -35 22 -7 9 -13 13 -13 7 0 -5 -4
-4 -8 2 -12 18 -119 84 -126 77 -3 -4 -6 -1 -6 6 0 7 -4 10 -9 7 -5 -3 -12 1
-15 10 -3 8 -11 12 -17 8 -8 -5 -9 -3 -4 6 6 10 4 12 -8 7 -10 -3 -17 -2 -17
3 0 6 9 10 20 10 18 0 49 15 175 86 22 12 83 44 135 71 52 27 138 74 190 105
52 30 120 69 150 85 30 16 74 42 98 57 73 46 90 51 124 36z"/>
<path d="M7295 7231 c-39 -21 -88 -49 -110 -63 -63 -39 -326 -187 -485 -273
-172 -92 -231 -131 -224 -148 2 -6 64 -43 136 -82 73 -38 180 -97 238 -131
262 -152 408 -238 445 -263 l40 -27 377 215 c424 243 541 316 536 332 -2 7
-91 59 -198 116 -107 58 -280 153 -385 213 -221 125 -269 150 -287 150 -7 0
-45 -17 -83 -39z m263 -78 c96 -54 191 -108 211 -119 45 -27 191 -106 385
-208 30 -16 57 -35 60 -43 3 -8 1 -11 -4 -8 -6 3 -13 -1 -16 -10 -4 -9 -13
-14 -21 -11 -8 3 -11 2 -8 -4 5 -7 -35 -37 -42 -32 -10 6 -23 0 -18 -8 3 -5 0
-7 -9 -4 -9 3 -20 -3 -27 -14 -7 -11 -19 -18 -26 -15 -8 3 -13 0 -11 -8 2 -8
-4 -13 -14 -13 -10 1 -15 -2 -12 -7 3 -5 -1 -10 -8 -10 -7 -1 -18 -2 -25 -3
-7 0 -19 -10 -28 -21 -9 -11 -14 -15 -11 -8 4 7 -4 6 -24 -3 -16 -9 -30 -18
-30 -20 0 -3 5 -2 10 1 6 3 10 4 10 1 0 -10 -60 -37 -70 -31 -5 3 -16 -5 -24
-17 -9 -12 -16 -18 -16 -13 0 4 -12 -2 -27 -16 -14 -13 -23 -18 -19 -12 5 9 2
11 -8 7 -9 -3 -13 -10 -10 -15 3 -5 -4 -9 -14 -9 -11 0 -22 -7 -26 -15 -3 -9
-12 -12 -22 -8 -12 4 -15 3 -10 -5 4 -7 1 -13 -6 -13 -7 -1 -20 -2 -28 -3 -8
0 -14 -6 -13 -13 2 -8 -4 -10 -14 -6 -11 4 -14 3 -9 -6 4 -6 4 -11 -1 -10 -22
4 -40 -3 -63 -24 -25 -24 -32 -27 -51 -27 -5 0 -8 -4 -4 -9 6 -11 -32 -26 -54
-22 -7 1 -10 -2 -6 -8 3 -7 -2 -11 -14 -11 -11 0 -23 -4 -26 -10 -3 -5 -14
-10 -24 -10 -26 0 -72 25 -63 35 4 5 0 6 -9 3 -9 -4 -20 2 -28 14 -7 11 -18
17 -26 14 -8 -3 -15 -2 -17 2 -6 15 -68 53 -77 48 -5 -3 -12 1 -15 10 -3 8
-10 13 -15 10 -5 -3 -12 1 -15 10 -4 9 -13 14 -21 10 -9 -3 -15 0 -15 8 0 7
-18 21 -40 31 -22 10 -40 22 -40 28 0 5 -8 6 -17 3 -10 -4 -14 -4 -10 0 6 7
-42 39 -75 50 -10 4 -18 10 -18 14 0 8 -77 44 -97 45 -6 0 -15 4 -20 9 -5 5
-2 6 6 1 9 -5 12 -4 7 3 -4 6 -13 9 -21 5 -8 -3 -15 0 -15 7 0 6 -4 9 -9 6 -5
-3 -12 1 -15 10 -4 9 -13 14 -21 10 -8 -3 -15 0 -15 6 0 6 -3 8 -7 5 -3 -4
-13 2 -21 14 -8 11 -20 18 -28 15 -8 -3 -14 -2 -14 2 0 4 -14 15 -31 24 -16
10 -27 13 -23 7 4 -6 -4 -5 -17 2 -23 12 -23 13 -4 17 11 2 26 11 33 20 7 10
14 15 15 13 2 -4 35 13 152 76 33 18 78 42 100 53 22 11 56 30 75 41 34 22 97
57 195 111 52 29 86 48 170 99 28 16 59 34 70 40 11 5 31 16 45 24 14 8 27 15
29 15 2 0 82 -44 179 -97z"/>
<path d="M5015 7197 c-49 -28 -193 -110 -320 -182 -126 -73 -278 -159 -337
-191 -63 -34 -108 -65 -108 -74 0 -8 15 -23 33 -34 56 -32 308 -171 412 -226
111 -59 241 -133 355 -203 66 -41 77 -44 95 -33 59 38 420 244 545 311 239
127 309 169 310 185 0 17 -14 25 -438 261 -313 175 -436 240 -449 238 -5 -1
-48 -24 -98 -52z m193 -17 c42 -23 95 -51 117 -64 22 -13 67 -38 100 -55 33
-17 67 -36 75 -41 8 -5 71 -40 140 -78 253 -139 259 -143 289 -164 13 -10 32
-18 42 -18 11 0 19 -5 19 -11 0 -6 -7 -8 -16 -5 -8 3 -13 2 -10 -3 6 -9 -22
-26 -36 -23 -5 1 -8 -3 -8 -9 0 -5 -4 -7 -10 -4 -5 3 -10 1 -10 -6 0 -7 -3
-10 -6 -6 -3 3 -15 -3 -27 -13 -11 -11 -24 -17 -28 -14 -11 6 -69 -27 -69 -39
0 -4 -4 -5 -10 -2 -5 3 -10 1 -10 -5 0 -6 -5 -8 -10 -5 -6 3 -13 0 -16 -9 -3
-8 -12 -12 -19 -10 -7 3 -22 -3 -33 -13 -10 -10 -25 -19 -33 -21 -7 -2 -17 -9
-21 -15 -4 -7 -8 -7 -8 -2 0 6 -4 4 -9 -4 -5 -8 -19 -15 -30 -16 -11 -1 -37
-13 -58 -26 -67 -43 -77 -49 -105 -60 -16 -6 -26 -14 -24 -18 3 -3 -9 -14 -25
-24 -18 -10 -28 -12 -24 -4 4 6 1 5 -7 -4 -7 -9 -30 -21 -50 -28 -21 -7 -44
-21 -51 -32 -8 -10 -17 -16 -21 -12 -4 4 -16 -3 -28 -17 -11 -14 -16 -18 -12
-10 4 8 -4 5 -18 -7 -25 -24 -44 -31 -33 -13 6 9 -8 14 -27 11 -5 0 -8 4 -8
10 0 5 -5 7 -12 3 -7 -4 -8 -3 -4 4 4 7 -6 17 -26 26 -36 17 -70 37 -78 47 -3
4 -24 16 -47 28 -23 11 -45 25 -48 31 -4 6 -10 8 -15 5 -5 -3 -11 -1 -15 5 -4
6 -11 8 -16 5 -5 -4 -9 -1 -9 5 0 6 -4 8 -10 5 -5 -3 -10 -2 -10 3 0 13 -76
53 -84 45 -3 -4 -6 -1 -6 5 0 11 -38 28 -53 24 -5 -1 -6 2 -3 7 4 5 -4 13 -16
17 -13 3 -35 15 -50 26 -15 11 -37 20 -47 21 -11 0 -17 5 -14 11 4 6 -1 6 -13
2 -10 -4 -15 -4 -11 0 9 9 -72 56 -84 48 -5 -3 -9 0 -9 6 0 6 -4 9 -10 5 -5
-3 -18 3 -30 15 -11 11 -20 18 -20 15 0 -3 -10 3 -22 14 -11 11 -25 18 -30 15
-4 -3 -8 0 -8 6 0 6 -4 8 -10 5 -5 -3 -10 -1 -10 4 0 6 8 11 18 11 9 0 33 10
52 21 19 12 60 35 90 51 30 16 73 40 95 54 22 13 67 38 100 55 33 17 67 37 75
44 8 7 35 23 60 36 25 14 77 43 115 66 108 64 239 132 253 133 7 0 47 -18 90
-40z"/>
<path d="M3975 6626 c-49 -32 -391 -230 -505 -291 -133 -72 -338 -194 -345
-204 -8 -13 12 -29 95 -76 47 -27 132 -76 190 -110 58 -34 159 -90 225 -125
66 -35 161 -86 210 -112 50 -27 108 -58 130 -69 l41 -21 99 64 c55 36 145 89
200 118 120 64 489 275 528 302 15 11 27 23 27 28 0 10 -132 90 -415 250 -110
63 -256 147 -324 187 -67 40 -126 73 -130 72 -3 0 -15 -6 -26 -13z m125 -67
c41 -23 82 -47 90 -54 8 -7 56 -34 105 -60 50 -26 97 -53 105 -60 8 -6 47 -29
85 -50 39 -21 86 -47 105 -58 19 -11 49 -27 65 -35 17 -9 32 -18 35 -22 9 -11
151 -90 163 -90 7 0 6 -4 -2 -9 -8 -5 -20 -7 -27 -4 -6 2 -18 -4 -25 -14 -8
-10 -23 -19 -34 -21 -11 -2 -28 -12 -37 -24 -10 -11 -18 -17 -18 -12 0 4 -7
-1 -16 -12 -8 -10 -13 -13 -9 -6 5 9 1 10 -19 1 -14 -7 -24 -17 -23 -23 1 -6
-6 -10 -17 -8 -10 2 -15 -1 -12 -6 3 -5 -13 -19 -36 -32 -26 -14 -38 -18 -34
-9 4 8 -2 3 -14 -11 -12 -14 -19 -19 -15 -12 5 10 1 10 -19 1 -14 -7 -23 -16
-20 -20 3 -5 0 -9 -5 -9 -18 0 -26 -3 -39 -16 -7 -7 -19 -11 -28 -7 -9 3 -14
0 -12 -8 2 -8 -4 -13 -14 -13 -10 1 -15 -2 -12 -7 5 -9 -11 -13 -31 -9 -5 1
-15 -7 -22 -16 -7 -10 -13 -15 -13 -11 0 4 -17 -3 -37 -15 -21 -12 -50 -28
-65 -35 -16 -8 -28 -19 -28 -24 0 -6 -4 -8 -9 -4 -6 3 -14 -3 -20 -12 -5 -10
-12 -17 -15 -15 -14 6 -27 1 -21 -8 3 -5 0 -8 -7 -5 -7 3 -22 -6 -32 -20 -10
-14 -25 -25 -32 -25 -8 0 -14 -6 -14 -12 -1 -8 -5 -7 -13 4 -7 9 -50 35 -95
57 -44 23 -84 46 -87 51 -3 6 -17 10 -31 10 -13 0 -24 5 -24 11 0 5 -4 7 -10
4 -5 -3 -10 -1 -10 5 0 6 -4 8 -10 5 -5 -3 -10 -2 -10 4 0 6 -10 15 -21 22
-16 8 -20 8 -15 0 4 -6 -8 -4 -28 5 -19 10 -33 21 -30 26 5 7 -9 11 -22 6 -3
-2 -10 5 -15 15 -6 9 -15 17 -20 17 -6 0 -23 9 -39 20 -15 11 -37 21 -49 23
-12 2 -27 12 -35 23 -8 10 -17 16 -21 12 -4 -3 -15 2 -26 13 -11 11 -25 17
-31 13 -6 -4 -8 -3 -5 3 6 9 -5 15 -41 23 -4 1 -10 7 -15 15 -4 7 -21 16 -37
20 -17 4 -30 11 -30 16 0 6 -4 7 -10 4 -5 -3 -10 -1 -10 6 0 7 -3 10 -6 7 -3
-4 -18 6 -34 20 l-28 26 23 18 c13 10 28 18 33 18 5 0 15 7 22 16 8 8 27 22
44 30 17 8 49 25 71 38 22 14 65 37 95 52 30 16 83 46 118 66 34 21 66 38 71
38 4 0 19 8 32 19 13 10 48 31 77 47 29 16 69 39 90 51 20 13 56 33 80 45 23
12 42 26 42 30 0 4 7 8 15 8 9 0 18 7 21 15 6 14 8 14 18 1 6 -8 45 -34 86
-57z"/>
<path d="M6115 6568 c-66 -39 -172 -100 -235 -136 -555 -314 -529 -297 -486
-326 32 -21 312 -183 491 -284 83 -47 192 -111 244 -143 51 -33 95 -59 97 -59
1 0 29 15 61 34 32 18 161 88 286 155 238 126 551 310 543 318 -2 3 -15 -1
-28 -8 -12 -7 -29 -12 -37 -10 -7 1 -10 -2 -6 -8 3 -7 -2 -11 -14 -11 -12 0
-31 -10 -43 -22 -13 -13 -26 -22 -30 -21 -5 2 -8 -2 -8 -8 0 -6 -7 -8 -16 -5
-8 3 -12 2 -9 -4 5 -8 -31 -34 -45 -33 -12 1 -50 -21 -50 -29 0 -4 -9 -8 -21
-8 -11 0 -17 -4 -14 -10 6 -9 -8 -14 -27 -11 -5 0 -8 -4 -8 -11 0 -6 -3 -9 -6
-5 -4 3 -13 -1 -21 -9 -8 -8 -19 -11 -25 -8 -7 5 -8 2 -3 -6 6 -10 4 -12 -9
-7 -10 4 -19 1 -22 -8 -4 -8 -10 -13 -14 -10 -13 8 -40 -6 -33 -18 4 -6 1 -7
-7 -2 -7 4 -15 4 -19 -1 -3 -5 -36 -24 -73 -43 -38 -19 -68 -38 -68 -43 0 -5
-4 -7 -9 -3 -5 3 -17 -2 -25 -11 -9 -8 -16 -12 -16 -8 0 4 -7 -1 -16 -12 -8
-10 -13 -12 -9 -4 4 10 2 9 -8 -2 -8 -10 -17 -14 -21 -10 -4 4 -14 -2 -22 -12
-8 -11 -14 -17 -14 -13 0 11 -58 -21 -81 -44 -10 -10 -19 -14 -19 -9 0 6 -7
10 -15 10 -8 0 -14 6 -12 13 1 6 -3 11 -9 10 -6 -1 -23 9 -39 23 -15 13 -36
24 -45 24 -10 0 -21 7 -24 16 -4 9 -9 14 -13 11 -3 -4 -11 0 -17 7 -16 21
-182 107 -189 99 -4 -3 -7 -1 -7 6 0 7 -4 10 -9 7 -5 -3 -12 1 -15 10 -3 8
-10 12 -16 9 -5 -3 -10 -1 -10 5 0 6 -4 8 -10 5 -5 -3 -10 1 -10 9 0 9 -5 16
-11 16 -6 0 -24 9 -41 21 -16 12 -32 19 -34 16 -3 -3 -13 1 -22 9 -10 8 -19
13 -22 12 -3 -2 -16 7 -29 19 -13 12 -28 20 -33 17 -4 -3 -8 -1 -8 5 0 12 -60
45 -60 34 0 -5 -5 0 -11 10 -5 9 -19 17 -29 17 -11 0 -20 5 -20 11 0 5 -4 8
-9 5 -5 -3 -11 1 -15 9 -3 8 -18 16 -33 16 -23 1 -24 3 -6 6 12 2 27 11 33 19
7 8 16 14 21 14 4 0 35 18 68 40 33 22 64 40 69 40 5 0 21 9 34 20 22 17 102
62 248 138 19 10 53 29 75 42 22 13 49 28 60 34 11 6 40 25 65 42 25 17 61 39
81 48 20 10 45 25 55 35 21 20 56 13 104 -19 14 -9 32 -20 40 -24 8 -4 33 -18
55 -31 22 -13 56 -33 75 -45 19 -11 42 -25 50 -30 15 -10 262 -148 390 -218
36 -19 90 -50 121 -67 33 -19 61 -30 69 -25 8 5 -10 19 -51 42 -179 96 -406
224 -597 335 -117 67 -216 123 -220 123 -4 -1 -61 -33 -127 -72z"/>
<path d="M8094 6446 c-83 -50 -268 -160 -411 -245 l-260 -154 -7 -60 c-8 -79
-8 -972 0 -980 4 -4 37 10 73 30 158 86 258 143 441 251 107 63 227 133 265
156 l70 41 0 524 c0 341 -3 525 -10 527 -5 1 -78 -39 -161 -90z m166 -436 l0
-520 -25 -6 c-14 -3 -25 -10 -25 -15 0 -5 -6 -6 -14 -3 -8 3 -19 -4 -26 -16
-7 -13 -17 -19 -26 -16 -10 4 -12 2 -8 -6 5 -8 1 -9 -12 -4 -10 4 -15 4 -11
-1 4 -4 -24 -22 -63 -40 -38 -18 -70 -37 -70 -43 0 -6 -4 -8 -10 -5 -5 3 -10
1 -10 -4 0 -6 -9 -11 -20 -11 -10 0 -24 -9 -30 -20 -6 -11 -15 -18 -20 -15 -5
3 -19 -5 -31 -17 -12 -13 -18 -16 -14 -8 4 8 -2 5 -14 -8 -12 -12 -27 -19 -33
-16 -6 4 -8 3 -5 -2 3 -5 -8 -17 -24 -27 -17 -9 -27 -12 -24 -7 4 6 -9 3 -29
-6 -19 -10 -34 -22 -33 -28 1 -6 -6 -10 -15 -10 -10 1 -16 -2 -13 -6 2 -4 -7
-12 -21 -19 -20 -9 -24 -9 -19 1 4 7 -2 3 -13 -9 -21 -24 -38 -31 -26 -12 3 6
-5 3 -20 -6 -14 -10 -26 -21 -26 -26 0 -5 -7 -6 -15 -3 -8 3 -26 -6 -41 -23
-15 -15 -24 -21 -20 -13 4 8 -2 4 -13 -10 l-21 -25 0 453 c0 295 3 452 10 452
6 0 10 28 10 63 l0 63 60 29 c33 16 60 32 60 36 0 3 14 12 31 19 17 7 36 18
43 24 12 11 41 29 91 55 16 9 35 22 43 29 7 6 19 12 26 12 8 0 19 7 26 15 7 8
24 21 39 28 48 26 146 80 156 87 12 10 80 48 118 68 16 8 31 20 33 26 3 7 10
13 17 13 17 0 67 33 67 44 0 5 2 9 5 9 3 0 5 -234 5 -520z"/>
<path d="M1970 6001 l0 -530 128 -67 c70 -37 204 -110 297 -162 303 -171 400
-222 410 -219 6 3 10 184 10 517 l0 514 -410 238 c-225 131 -416 238 -422 238
-10 0 -13 -112 -13 -529z m29 497 c1 9 7 7 21 -6 11 -10 41 -29 66 -43 67 -36
89 -48 196 -111 53 -32 101 -58 107 -58 6 0 11 -4 11 -8 0 -4 19 -18 43 -30
23 -12 49 -26 57 -31 21 -13 140 -83 172 -101 15 -8 50 -28 78 -44 l50 -29 0
-493 c0 -487 0 -493 -20 -491 -11 1 -20 5 -20 10 0 4 -4 5 -10 2 -5 -3 -10 -1
-10 5 0 6 -4 9 -9 6 -5 -3 -12 1 -15 10 -4 9 -13 14 -22 10 -8 -3 -12 -2 -9 4
5 9 -1 12 -21 9 -4 0 -10 3 -13 8 -11 17 -78 53 -84 46 -4 -3 -7 -1 -7 5 0 7
-6 11 -12 9 -7 -1 -12 4 -11 11 2 7 -7 12 -22 12 -14 0 -25 5 -25 11 0 5 -5 7
-10 4 -6 -4 -9 -2 -8 3 3 12 -85 62 -108 62 -9 0 -12 5 -8 12 5 8 2 9 -9 5
-10 -4 -17 -1 -17 5 0 6 -3 9 -6 5 -3 -3 -18 5 -33 19 -14 13 -33 22 -41 19
-8 -4 -11 -3 -7 1 3 4 -8 15 -26 24 -73 40 -219 110 -228 110 -5 0 -9 206 -8
523 0 300 4 514 9 502 5 -11 9 -14 9 -7z"/>
<path d="M4837 5860 c-277 -155 -307 -172 -490 -283 -75 -45 -103 -67 -91 -71
22 -8 26 -8 19 4 -3 6 1 10 9 10 14 0 85 37 96 50 5 5 35 24 115 70 17 9 57
33 90 52 33 20 80 47 105 60 25 14 63 35 85 48 47 27 167 93 210 116 17 8 52
28 80 43 l49 28 46 -24 c25 -13 63 -35 85 -48 22 -13 65 -36 95 -52 30 -15 57
-31 60 -35 3 -4 21 -14 40 -23 19 -8 42 -19 50 -25 74 -46 172 -100 180 -100
5 0 10 -4 10 -9 0 -5 17 -16 38 -24 21 -8 44 -22 51 -31 8 -9 19 -16 25 -16 6
0 39 -18 74 -40 34 -22 67 -40 72 -40 14 0 33 -40 20 -41 -5 -1 -14 -3 -20 -4
-5 -1 -15 -3 -21 -4 -5 0 -7 -5 -4 -11 3 -5 0 -7 -8 -5 -7 3 -25 -5 -40 -19
-14 -13 -29 -21 -33 -17 -4 3 -4 0 0 -6 6 -12 -5 -18 -26 -14 -5 0 -8 -4 -8
-10 0 -5 -5 -7 -12 -3 -6 4 -22 -5 -36 -22 -13 -16 -21 -23 -17 -16 6 11 3 12
-14 2 -12 -6 -19 -15 -16 -19 7 -12 -24 -23 -37 -14 -7 3 -8 1 -4 -5 7 -11 -6
-17 -27 -13 -5 1 -6 -3 -2 -9 3 -5 0 -11 -7 -11 -7 -1 -17 -2 -23 -4 -5 -1
-16 -3 -22 -3 -7 -1 -12 -8 -10 -14 1 -7 -4 -12 -10 -11 -7 2 -13 -2 -13 -8 0
-6 -7 -8 -17 -5 -10 4 -14 4 -10 0 10 -10 -43 -43 -59 -37 -8 3 -17 -2 -20
-11 -3 -9 -9 -14 -13 -12 -10 7 -111 -52 -111 -64 0 -5 -6 -7 -14 -4 -8 3 -21
-5 -30 -18 -9 -12 -16 -19 -16 -15 0 5 -18 -2 -40 -14 -22 -13 -40 -27 -40
-31 0 -5 -4 -6 -10 -3 -5 3 -10 1 -10 -6 0 -7 -3 -9 -7 -6 -3 4 -12 2 -18 -3
-14 -11 -65 6 -65 22 0 4 -3 7 -7 6 -9 -2 -54 23 -110 60 -20 13 -38 21 -40
18 -3 -3 -13 3 -22 13 -20 23 -147 91 -155 83 -3 -3 -6 0 -6 5 0 13 -134 93
-164 99 -11 2 -24 10 -28 18 -5 9 -15 13 -25 9 -11 -4 -14 -3 -9 5 4 8 2 10
-7 6 -8 -3 -17 2 -21 11 -3 9 -10 14 -15 11 -5 -3 -11 1 -15 9 -3 8 -10 15
-15 15 -6 0 -27 11 -47 25 -20 14 -40 22 -45 19 -5 -3 -9 0 -9 6 0 6 -4 9 -9
6 -5 -4 -11 -1 -13 5 -2 6 -20 17 -40 24 -44 15 -44 -5 0 -25 30 -13 460 -259
622 -355 156 -92 216 -125 229 -125 7 0 65 31 129 68 64 38 194 112 287 165
260 147 460 272 460 286 0 17 -850 511 -879 511 -6 0 -132 -68 -279 -150z"/>
<path d="M3040 5398 l0 -523 223 -126 c230 -130 531 -299 604 -339 24 -13 46
-20 50 -16 9 8 9 28 5 613 l-2 412 -172 97 c-95 54 -288 167 -429 251 -141 84
-261 153 -268 153 -8 0 -11 -138 -11 -522z m157 416 c60 -35 115 -69 123 -74
8 -5 31 -20 50 -32 19 -13 46 -29 60 -36 14 -7 39 -20 55 -31 17 -10 47 -28
68 -40 20 -11 54 -31 75 -43 20 -12 53 -30 72 -40 19 -10 49 -27 65 -38 17
-11 54 -31 83 -46 l52 -27 0 -493 0 -493 -65 34 c-36 19 -65 32 -65 28 0 -4
-6 2 -14 13 -8 10 -18 19 -23 19 -4 0 -28 12 -53 27 -25 15 -52 28 -60 30 -8
2 -21 10 -28 18 -12 13 -13 13 -6 0 4 -8 -4 -5 -18 8 -13 12 -28 19 -31 15 -4
-3 -7 -1 -7 6 0 11 -47 36 -62 33 -5 -1 -8 2 -8 7 0 10 -43 28 -47 20 -1 -2
-9 5 -18 16 -9 11 -14 13 -10 5 4 -8 -1 -6 -9 4 -9 11 -16 17 -16 13 0 -4 -14
0 -30 8 -17 9 -28 20 -25 25 4 6 -1 10 -9 10 -9 0 -18 0 -21 0 -3 0 -14 9 -25
20 -12 12 -25 18 -30 15 -6 -4 -10 -1 -10 6 0 7 -3 9 -6 6 -4 -4 -15 3 -25 14
-10 12 -23 18 -28 14 -6 -3 -18 3 -28 14 -9 11 -20 18 -25 15 -4 -3 -8 0 -8 6
0 6 -4 8 -10 5 -5 -3 -10 -1 -10 5 0 6 -3 9 -7 7 -5 -3 -7 222 -5 499 2 439 4
503 17 498 8 -4 63 -35 122 -70z"/>
<path d="M7075 5852 c-60 -36 -254 -147 -430 -246 l-320 -181 -3 -517 c-2
-441 0 -518 12 -518 13 0 262 137 498 274 54 31 142 82 195 113 54 31 115 67
136 80 l37 23 0 515 c0 282 -3 516 -7 518 -5 3 -57 -25 -118 -61z m107 -634
c2 -179 0 -325 -3 -323 -3 2 -11 -4 -19 -15 -7 -10 -19 -16 -26 -13 -6 2 -15
-1 -20 -8 -4 -8 -3 -10 4 -5 7 4 12 5 12 3 0 -9 -89 -57 -105 -57 -9 0 -26
-11 -38 -24 -20 -21 -78 -57 -92 -56 -21 1 -25 -1 -20 -10 3 -5 0 -7 -9 -4 -8
3 -19 -3 -25 -14 -6 -11 -18 -22 -26 -26 -9 -3 -13 -2 -10 4 4 6 -5 5 -19 -1
-14 -7 -23 -15 -21 -19 6 -9 -70 -51 -79 -43 -3 3 -6 1 -6 -6 0 -8 -7 -11 -15
-7 -9 3 -20 -3 -27 -14 -7 -11 -24 -20 -38 -20 -18 0 -21 -3 -11 -9 11 -7 8
-11 -10 -17 -13 -4 -27 -7 -31 -6 -5 1 -8 -3 -8 -8 0 -5 -3 -9 -7 -9 -20 3
-34 -2 -28 -11 3 -5 3 -10 -2 -11 -36 -3 -60 -12 -70 -26 -7 -9 -23 -18 -35
-20 -12 -2 -28 -8 -35 -15 -7 -6 -16 -9 -18 -6 -7 6 -11 997 -4 993 3 -2 50
21 105 52 54 31 122 68 149 83 28 15 77 44 110 64 33 20 65 36 72 36 6 0 13 4
15 8 2 5 32 24 68 44 112 61 215 123 218 130 2 5 9 8 15 9 7 0 28 11 47 23
l35 23 2 -171 c2 -94 4 -318 5 -498z"/>
<path d="M5945 5219 c-123 -76 -389 -232 -624 -364 l-106 -60 3 -520 c2 -286
6 -523 10 -527 4 -3 54 21 112 54 58 33 146 83 195 110 50 28 135 78 190 113
55 34 164 100 243 145 l142 82 -2 521 c-3 455 -5 522 -18 524 -8 1 -73 -34
-145 -78z m145 35 c-13 -34 -13 -97 0 -89 6 3 10 2 10 -4 0 -5 -5 -13 -11 -17
-8 -4 -7 -9 2 -15 10 -6 11 -9 2 -9 -7 0 -13 -5 -13 -11 0 -5 4 -7 10 -4 6 4
10 -140 10 -419 -1 -408 -2 -426 -20 -436 -10 -5 -27 -10 -37 -10 -10 0 -31
-14 -46 -31 -17 -20 -33 -29 -43 -25 -8 3 -12 2 -9 -4 3 -6 -1 -10 -9 -10 -9
0 -16 -5 -16 -12 0 -6 -3 -9 -6 -5 -4 3 -13 -1 -21 -9 -8 -8 -18 -12 -23 -9
-4 3 -11 -2 -14 -11 -3 -8 -10 -12 -16 -9 -5 3 -10 1 -10 -5 0 -6 -4 -8 -10
-5 -5 3 -10 2 -10 -3 0 -14 -69 -53 -81 -47 -5 4 -9 1 -9 -4 0 -6 -7 -11 -15
-11 -9 0 -18 -7 -21 -15 -4 -9 -15 -20 -26 -26 -16 -8 -19 -8 -13 1 6 9 3 9
-13 1 -12 -6 -26 -19 -31 -29 -6 -9 -11 -13 -11 -8 0 6 -7 1 -16 -10 -8 -10
-13 -12 -9 -4 4 8 -1 6 -9 -4 -9 -11 -16 -16 -16 -12 0 4 -7 0 -16 -9 -9 -9
-23 -14 -31 -11 -8 3 -12 2 -9 -2 3 -4 -4 -14 -16 -21 -16 -10 -19 -10 -13 1
3 7 0 5 -8 -4 -8 -10 -22 -18 -31 -18 -9 0 -25 -9 -36 -20 -11 -11 -20 -17
-20 -13 0 4 -7 -2 -16 -13 -8 -10 -13 -12 -9 -4 4 10 2 9 -8 -2 -8 -10 -17
-15 -20 -11 -4 3 -7 1 -7 -6 0 -7 -4 -9 -10 -6 -5 3 -10 2 -10 -4 0 -6 -7 -8
-15 -4 -10 3 -15 1 -13 -7 2 -7 -3 -14 -10 -16 -7 -1 -9 -1 -5 2 5 2 6 233 3
514 -4 404 -2 510 8 510 6 0 12 5 12 11 0 5 4 8 9 5 5 -3 38 11 73 33 35 21
87 51 116 66 29 15 55 31 58 36 3 5 20 16 37 24 18 8 48 25 67 36 19 12 55 33
80 47 142 78 238 136 268 162 6 6 12 8 12 4 0 -4 8 -1 18 7 9 8 34 23 54 33
21 10 35 23 31 29 -3 6 -1 7 5 3 8 -5 8 -15 2 -32z"/>
<path d="M4147 5274 c-4 -4 -7 -237 -7 -518 l0 -511 53 -28 c57 -30 314 -180
417 -244 173 -107 384 -223 392 -215 4 4 7 239 6 522 l-3 514 -170 96 c-93 53
-204 117 -245 142 -72 43 -417 240 -430 246 -3 1 -9 -1 -13 -4z m63 -49 c19
-15 122 -74 317 -182 75 -41 219 -127 233 -138 8 -7 44 -28 80 -47 36 -19 81
-44 100 -55 19 -11 41 -18 48 -16 9 4 12 -100 12 -495 0 -458 -1 -500 -17
-506 -9 -4 -20 -1 -25 6 -4 7 -8 9 -8 3 0 -5 -7 1 -16 13 -9 14 -22 21 -31 18
-8 -3 -12 -2 -9 3 6 8 -46 35 -60 31 -4 -1 -10 2 -13 7 -3 4 -15 15 -25 23
-18 13 -19 13 -12 0 4 -8 -1 -6 -11 6 -18 21 -51 39 -66 35 -5 -1 -6 3 -3 8 5
8 -14 18 -67 35 -11 3 -15 11 -11 17 4 8 3 9 -4 5 -6 -4 -21 3 -32 14 -11 11
-25 18 -29 15 -5 -2 -12 2 -15 11 -4 9 -9 14 -13 10 -3 -3 -13 3 -21 15 -8 11
-20 18 -28 15 -8 -3 -14 -1 -14 4 0 13 -76 51 -85 42 -5 -4 -5 -1 -1 6 5 8 0
12 -14 12 -12 0 -18 4 -15 10 3 5 0 7 -9 4 -8 -3 -25 5 -38 18 -25 25 -63 49
-115 73 l-33 15 0 495 c0 467 1 494 18 488 9 -3 24 -11 32 -18z"/>
<path d="M1972 4729 c-2 -481 -1 -517 16 -531 9 -8 60 -38 112 -68 143 -80
317 -178 390 -220 172 -100 320 -171 325 -158 3 7 4 240 3 518 l-3 504 -115
64 c-171 95 -566 320 -638 364 -72 44 -77 45 -60 18 7 -11 18 -20 25 -20 6 0
13 -3 15 -8 3 -7 191 -119 253 -150 17 -9 32 -18 35 -21 3 -4 16 -12 30 -19
14 -7 39 -21 55 -31 17 -10 110 -62 208 -117 l177 -99 0 -492 0 -491 -46 24
c-25 13 -51 21 -57 18 -7 -4 -9 -3 -4 1 4 5 -17 22 -45 38 -138 76 -178 96
-178 91 0 -2 -10 5 -22 16 -12 11 -28 18 -34 16 -7 -3 -15 2 -18 10 -3 8 -15
14 -27 14 -12 0 -19 3 -16 7 8 7 -110 76 -130 76 -7 0 -13 4 -13 8 0 5 -17 17
-37 27 -50 24 -87 45 -93 54 -3 3 -14 8 -25 10 -11 1 -26 9 -33 16 -7 6 -20
12 -28 12 -12 0 -14 78 -17 518 l-2 517 -3 -516z"/>
<path d="M8165 5191 c-44 -26 -186 -108 -315 -181 -129 -72 -281 -159 -337
-192 l-103 -60 0 -508 c0 -316 4 -511 10 -515 13 -8 220 105 563 308 l287 170
1 126 c0 112 0 729 -1 854 0 31 -4 47 -12 47 -7 -1 -49 -23 -93 -49z m94 -466
c1 -418 -1 -505 -12 -505 -24 0 -77 -31 -88 -52 -6 -11 -17 -17 -24 -14 -13 5
-61 -26 -77 -49 -4 -5 -8 -6 -8 -1 0 6 -7 1 -16 -10 -8 -10 -13 -12 -9 -4 4 9
1 8 -8 -3 -8 -10 -21 -16 -28 -15 -8 2 -13 -4 -11 -12 2 -8 0 -12 -3 -8 -10 9
-65 -19 -65 -33 0 -6 -5 -7 -10 -4 -6 3 -13 -1 -16 -9 -3 -9 -10 -13 -15 -10
-5 3 -9 1 -9 -3 0 -5 -9 -14 -21 -21 -12 -8 -18 -9 -14 -3 4 8 -2 7 -19 0 -14
-7 -23 -16 -20 -20 3 -5 -2 -6 -10 -3 -10 4 -16 1 -16 -8 0 -7 -10 -14 -21
-15 -12 -1 -27 -7 -33 -14 -8 -9 -7 -10 3 -4 10 6 12 4 7 -4 -5 -7 -14 -10
-22 -7 -8 3 -17 -1 -20 -9 -3 -7 -12 -11 -20 -8 -7 3 -16 -2 -20 -10 -3 -9
-12 -13 -21 -10 -10 4 -14 2 -10 -4 4 -6 -6 -13 -24 -17 -17 -3 -28 -10 -25
-15 3 -5 -1 -12 -10 -15 -8 -3 -12 -2 -9 4 3 5 -15 -3 -41 -17 -51 -29 -68
-21 -58 27 4 20 3 22 -5 10 -8 -11 -11 114 -11 436 0 346 3 453 13 463 10 11
10 13 0 7 -7 -4 -13 -3 -13 1 0 5 15 16 33 25 50 24 108 56 152 84 22 13 54
32 70 40 17 8 39 21 50 27 11 7 60 35 108 62 48 28 105 60 125 72 20 13 44 26
52 30 8 3 55 29 103 57 48 28 97 56 107 62 11 6 17 14 12 19 -4 5 -1 5 6 1 6
-4 12 -2 12 3 0 6 2 11 4 11 2 0 4 -227 5 -505z"/>
<path d="M3040 4107 l0 -513 63 -31 c34 -17 143 -79 242 -138 305 -183 557
-325 566 -319 5 3 9 236 9 518 l0 513 -177 100 c-489 276 -682 383 -692 383
-8 0 -11 -146 -11 -513z m46 474 c5 -4 38 -24 74 -43 36 -19 83 -45 105 -58
22 -13 69 -39 105 -58 36 -19 88 -49 115 -66 28 -17 73 -42 100 -56 28 -14 52
-28 55 -31 7 -7 182 -104 219 -120 17 -8 31 -18 31 -22 0 -5 3 -6 8 -4 4 3 7
-224 7 -503 0 -280 -4 -502 -8 -494 -5 8 -14 11 -20 8 -7 -4 -9 -4 -5 1 8 8
-52 45 -63 39 -4 -2 -9 3 -13 11 -3 8 -12 15 -21 15 -8 0 -15 5 -15 11 0 6 -7
9 -15 5 -8 -3 -15 -1 -15 5 0 8 -48 32 -57 30 -2 -1 -12 8 -23 19 -11 11 -29
20 -40 20 -11 0 -20 4 -20 9 0 6 -11 16 -24 23 -14 7 -62 35 -108 63 -46 27
-96 56 -113 65 -16 8 -32 18 -33 22 -2 5 -8 6 -13 2 -5 -3 -9 -1 -9 5 0 6 -19
20 -42 32 -24 12 -50 27 -58 34 -8 7 -34 18 -57 24 -24 7 -43 17 -43 23 0 6
-3 8 -7 5 -25 -26 -28 30 -25 502 1 270 6 491 10 491 4 0 12 -4 18 -9z"/>
<path d="M7099 4571 c-36 -21 -170 -96 -299 -166 -129 -71 -288 -160 -355
-200 l-120 -71 -3 -509 c-1 -301 2 -513 7 -518 9 -9 35 6 395 219 77 46 141
90 142 99 3 21 -9 19 -26 -4 -7 -11 -17 -18 -20 -16 -6 4 -130 -70 -156 -94
-7 -5 -15 -7 -20 -3 -4 4 -3 1 1 -7 6 -11 4 -13 -9 -8 -10 4 -15 3 -11 -3 6
-10 -7 -14 -33 -11 -7 1 -11 -4 -10 -11 2 -7 -3 -12 -9 -11 -7 2 -13 -2 -13
-8 0 -5 -4 -8 -10 -4 -5 3 -18 -3 -28 -13 -10 -10 -24 -16 -30 -14 -7 2 -11
-2 -10 -9 2 -7 -5 -13 -15 -14 -10 0 -21 -6 -26 -13 -5 -8 -12 -14 -17 -14
-24 -2 -43 -11 -39 -18 3 -4 -3 -7 -13 -6 -10 0 -16 -5 -14 -14 2 -10 0 -12
-7 -5 -12 12 -21 1006 -9 999 4 -3 32 12 62 31 31 20 64 38 74 42 9 3 24 12
32 19 8 7 42 27 75 45 33 17 80 43 105 57 25 14 62 34 83 45 20 12 37 24 37
29 0 4 11 8 24 8 14 0 28 5 31 10 3 6 23 18 43 28 20 10 54 28 75 40 20 12 54
32 75 44 20 12 54 30 75 40 20 10 37 23 37 28 0 6 3 10 8 10 4 0 7 -225 7
-500 0 -326 -3 -499 -10 -497 -5 2 -16 -2 -23 -10 -8 -7 -18 -10 -24 -7 -7 5
-8 2 -3 -6 6 -10 4 -12 -8 -7 -8 3 -21 -1 -27 -9 -7 -8 -19 -14 -26 -14 -8 0
-14 -5 -14 -11 0 -5 -4 -8 -9 -4 -6 3 -14 -3 -20 -12 -6 -10 -11 -14 -11 -10
0 4 -10 -1 -22 -12 -11 -11 -25 -18 -30 -15 -4 3 -8 1 -8 -5 0 -6 -7 -8 -15
-4 -10 3 -15 0 -13 -8 2 -8 -5 -14 -15 -14 -10 0 -23 -8 -28 -18 -15 -26 -1
-21 90 33 46 28 85 50 87 50 1 0 34 18 73 41 l71 41 0 504 c0 578 10 529 -101
465z"/>
<path d="M4140 3481 l0 -519 243 -138 c133 -76 325 -187 426 -246 102 -61 188
-105 193 -100 4 4 7 240 6 522 l-3 515 -270 157 c-148 87 -295 171 -325 187
-30 16 -98 54 -149 85 -52 31 -101 56 -108 56 -11 0 -13 -100 -13 -519z m55
475 c11 -7 52 -30 90 -51 39 -21 77 -43 85 -50 8 -6 23 -15 32 -18 10 -4 43
-22 73 -42 31 -19 58 -35 62 -35 3 0 14 -6 22 -14 9 -7 45 -29 81 -48 36 -19
81 -45 100 -56 134 -81 244 -141 252 -136 5 3 8 -228 8 -513 -1 -409 -3 -515
-13 -502 -14 18 -58 44 -69 41 -5 -1 -8 3 -8 9 0 5 -4 8 -9 5 -5 -3 -12 1 -15
10 -4 9 -9 14 -12 11 -3 -3 -13 1 -22 9 -34 30 -94 64 -103 59 -5 -4 -9 -1 -9
5 0 6 -5 8 -10 5 -6 -4 -9 -1 -8 7 2 7 -5 12 -14 12 -10 -1 -18 2 -18 6 0 10
-96 61 -104 55 -3 -3 -4 -2 -1 2 7 9 -33 35 -44 29 -5 -3 -11 1 -15 9 -3 8
-23 22 -46 31 -22 9 -40 21 -40 27 0 6 -3 7 -6 4 -4 -4 -20 3 -37 15 -17 13
-27 16 -22 7 7 -12 6 -12 -11 1 -10 8 -21 18 -24 21 -9 11 -139 87 -160 94
-20 6 -20 14 -20 506 0 274 3 499 8 499 4 0 16 -6 27 -14z"/>
<path d="M5960 3923 c-63 -36 -169 -94 -235 -131 -66 -36 -172 -97 -235 -136
-63 -38 -149 -87 -190 -108 -41 -22 -77 -42 -79 -44 -9 -9 -2 -1037 8 -1047
13 -13 44 10 34 26 -3 6 -1 7 5 3 11 -6 361 187 532 294 128 80 223 136 268
159 l42 21 0 515 c0 484 -1 515 -17 514 -10 -1 -70 -30 -133 -66z m140 41 c0
-8 -4 -12 -10 -9 -5 3 -10 1 -10 -4 0 -6 4 -11 9 -11 5 0 9 -213 10 -491 1
-432 -1 -490 -14 -485 -8 3 -15 2 -15 -2 0 -4 -9 -8 -20 -9 -25 -2 -90 -41
-90 -54 0 -5 -3 -8 -7 -8 -16 3 -73 -23 -68 -31 3 -4 -7 -11 -20 -14 -14 -4
-23 -11 -20 -16 3 -5 0 -8 -7 -5 -7 3 -25 -6 -40 -20 -15 -14 -32 -25 -38 -25
-5 0 -10 -5 -10 -11 0 -5 -4 -8 -8 -5 -5 3 -16 -4 -25 -15 -10 -11 -22 -17
-27 -14 -6 3 -10 1 -10 -4 0 -6 -9 -11 -20 -11 -12 0 -31 -10 -44 -23 -13 -13
-28 -21 -33 -20 -6 2 -23 -7 -38 -21 -15 -14 -32 -23 -38 -19 -5 3 -7 2 -4 -4
7 -11 -34 -33 -63 -33 -10 0 -22 -5 -26 -12 -5 -7 -2 -8 7 -3 10 6 11 5 3 -4
-6 -6 -20 -13 -32 -16 -29 -5 -62 -24 -62 -35 0 -6 -8 -10 -17 -10 -10 0 -27
-7 -37 -15 -11 -8 -23 -15 -28 -15 -4 0 -9 227 -10 504 -2 277 -1 503 0 501 5
-5 100 43 162 83 30 19 56 34 58 33 3 -2 44 23 84 50 15 11 32 19 37 19 6 0
15 8 20 18 6 9 11 13 11 9 0 -8 51 17 80 39 14 11 45 29 205 114 145 78 170
92 180 106 13 19 25 18 25 -2z"/>
<path d="M8050 3851 c-113 -66 -258 -152 -323 -193 -65 -40 -162 -98 -215
-129 l-97 -55 -3 -200 c-5 -291 8 -704 21 -704 6 0 65 31 132 69 66 37 210
119 320 181 300 169 366 210 377 239 22 54 21 911 -1 911 -3 0 -98 -54 -211
-119z m203 -343 c-3 -439 -7 -489 -34 -472 -5 3 -9 0 -9 -5 0 -6 -3 -10 -7
-10 -21 3 -33 -2 -27 -13 4 -6 3 -9 -2 -6 -14 9 -56 -11 -49 -22 4 -6 3 -9 -2
-8 -14 5 -122 -55 -117 -64 3 -4 -1 -5 -9 -2 -8 3 -21 -1 -28 -8 -8 -7 -26
-19 -41 -25 -16 -7 -28 -16 -28 -21 0 -4 -10 -8 -22 -9 -13 -1 -30 -11 -40
-23 -9 -11 -23 -20 -31 -20 -9 0 -30 -13 -48 -30 -18 -16 -35 -28 -37 -25 -2
2 -11 -3 -19 -11 -8 -8 -19 -12 -24 -9 -5 4 -9 1 -9 -5 0 -6 -5 -8 -12 -4 -6
4 -16 0 -22 -8 -6 -8 -13 -15 -16 -16 -23 -3 -60 -24 -60 -32 0 -6 -4 -9 -10
-5 -5 3 -18 -3 -29 -14 -11 -11 -22 -17 -24 -14 -3 2 -17 -3 -31 -12 l-26 -17
0 435 0 435 28 11 c33 13 95 49 187 110 38 25 75 48 80 51 6 3 54 31 108 63
53 32 119 70 146 85 27 15 84 47 126 72 42 25 86 50 98 57 11 6 24 19 29 27 5
9 10 16 11 16 2 0 1 -203 0 -452z"/>
<path d="M1983 3953 c-10 -4 -13 -101 -13 -442 0 -371 2 -440 15 -458 8 -12
66 -49 127 -84 62 -34 238 -136 392 -227 153 -90 287 -167 297 -169 18 -5 19
9 19 459 l0 464 -182 98 c-101 55 -241 134 -313 176 -71 42 -161 94 -200 115
-38 21 -82 47 -97 57 -14 10 -28 18 -30 17 -1 0 -9 -3 -15 -6z m24 -19 c-3 -3
18 -18 46 -33 65 -34 235 -133 307 -179 30 -20 96 -56 145 -81 50 -25 92 -48
95 -51 3 -3 43 -25 90 -49 47 -25 91 -50 98 -57 9 -10 12 -113 12 -449 l0
-436 -29 15 c-16 9 -32 12 -36 8 -5 -4 -5 -2 -1 5 6 11 -29 30 -47 25 -5 -1
-5 3 -1 9 5 9 2 10 -10 6 -10 -4 -15 -3 -11 3 3 6 -3 10 -15 10 -14 0 -19 4
-14 12 5 8 2 9 -10 5 -9 -4 -14 -3 -11 2 5 8 -34 28 -43 22 -2 -1 -12 8 -23
20 -10 12 -19 19 -19 15 0 -4 -12 2 -26 13 -15 11 -30 18 -35 15 -5 -3 -9 0
-9 7 0 7 -3 10 -6 7 -3 -3 -17 5 -31 18 -14 13 -30 24 -35 24 -5 0 -25 11 -45
25 -20 13 -40 22 -45 19 -4 -3 -8 0 -8 6 0 6 -5 8 -10 5 -6 -4 -9 -1 -8 6 2 7
-1 13 -7 14 -5 0 -26 10 -46 23 -20 12 -41 22 -46 22 -6 0 -16 7 -23 15 -7 9
-19 14 -27 11 -7 -3 -13 -1 -13 5 0 6 -4 7 -10 4 -5 -3 -10 -1 -10 4 0 6 -7
11 -16 11 -8 0 -12 4 -9 10 4 6 -1 7 -11 3 -12 -4 -15 -3 -10 5 4 7 2 10 -6 7
-8 -3 -22 1 -33 9 -19 14 -20 30 -23 353 -4 362 3 543 21 543 6 0 8 -3 4 -6z"/>
<path d="M7155 3331 c-16 -9 -82 -46 -145 -82 -63 -37 -180 -104 -260 -149
-80 -46 -209 -121 -287 -167 l-143 -84 0 -444 c0 -244 3 -451 6 -459 6 -15 10
-14 43 5 86 52 342 201 541 316 118 69 232 135 253 149 l37 24 0 450 c0 247
-3 451 -7 453 -5 3 -21 -3 -38 -12z m23 -171 c-9 -175 -2 -679 9 -708 4 -10 2
-13 -5 -8 -7 4 -12 3 -12 -3 0 -6 -7 -7 -17 -4 -9 4 -14 2 -10 -3 3 -5 -15
-18 -39 -28 -24 -10 -41 -22 -38 -27 3 -5 -3 -6 -12 -2 -12 4 -15 3 -10 -5 4
-7 1 -12 -8 -12 -8 0 -16 -5 -18 -12 -2 -6 -14 -12 -26 -13 -12 -1 -31 -10
-42 -20 -12 -10 -28 -20 -37 -21 -9 -2 -19 -8 -23 -15 -4 -6 -12 -9 -18 -5 -6
3 -14 1 -18 -5 -5 -8 -2 -10 7 -5 8 4 5 0 -6 -8 -11 -9 -37 -21 -57 -27 -21
-5 -36 -14 -33 -19 4 -6 -2 -10 -13 -10 -10 0 -27 -8 -38 -18 -11 -10 -32 -22
-47 -26 -15 -3 -25 -11 -22 -15 3 -5 -8 -12 -25 -16 -16 -4 -28 -12 -27 -18 1
-6 -5 -11 -13 -12 -8 0 -25 -10 -38 -23 -12 -12 -27 -20 -32 -17 -6 4 -10 1
-10 -4 0 -6 -3 -10 -7 -10 -21 3 -33 -2 -27 -13 5 -7 3 -8 -6 -3 -8 5 -20 -1
-32 -16 -11 -13 -17 -18 -13 -11 6 11 3 12 -14 3 -11 -7 -21 -15 -21 -19 0 -4
-9 -8 -20 -9 -20 -2 -20 4 -20 430 l0 432 35 23 c19 12 40 22 45 22 6 0 8 5 4
12 -4 6 -3 9 2 6 5 -3 30 6 55 21 26 14 78 44 115 65 38 21 77 46 87 54 9 8
17 11 17 6 0 -5 4 -4 8 2 4 6 63 42 132 80 69 38 134 74 145 81 11 7 31 18 45
25 14 7 27 15 30 19 3 4 28 18 56 32 28 14 54 34 58 43 4 9 8 15 9 13 2 -2 -1
-83 -5 -179z"/>
<path d="M3040 2887 l0 -453 193 -109 c105 -60 298 -171 427 -247 129 -76 241
-137 249 -136 12 3 14 73 12 453 -1 247 -4 452 -7 456 -2 4 -44 29 -92 55 -85
46 -348 197 -587 338 -66 39 -131 76 -144 83 -53 29 -51 49 -51 -440z m168
345 c20 -13 45 -25 55 -29 9 -3 17 -9 17 -13 0 -4 15 -13 33 -20 17 -8 39 -19
47 -25 8 -7 42 -27 75 -45 33 -17 80 -44 105 -60 25 -16 64 -38 87 -50 23 -12
57 -31 76 -43 18 -12 55 -33 82 -47 27 -14 55 -30 62 -37 7 -6 22 -15 33 -18
20 -6 20 -16 20 -439 0 -238 -3 -435 -6 -439 -3 -3 -13 1 -22 9 -31 28 -95 65
-113 67 -10 1 -16 4 -14 7 2 4 -13 16 -33 27 -20 11 -54 30 -74 41 -21 12 -38
19 -38 17 0 -3 -8 3 -18 13 -10 9 -35 26 -57 37 -22 11 -46 26 -53 33 -7 6
-20 12 -28 12 -8 0 -25 9 -37 21 -12 11 -39 28 -59 36 -21 8 -38 19 -38 23 0
8 -49 25 -63 21 -5 -1 -5 4 -1 10 5 9 2 10 -10 6 -10 -4 -15 -3 -11 3 3 6 -1
10 -9 10 -9 0 -16 4 -16 9 0 5 -7 12 -16 15 -8 3 -12 2 -9 -4 3 -6 -1 -7 -10
-4 -9 4 -13 9 -10 12 4 5 -50 44 -67 48 -5 1 -11 3 -15 4 -5 1 -10 2 -13 2 -3
0 -5 198 -5 441 l0 442 58 -35 c32 -19 75 -45 95 -58z"/>
<path d="M4142 2253 l3 -458 90 -48 c104 -56 304 -169 420 -237 244 -144 324
-190 329 -190 2 0 3 8 1 18 -1 9 -10 16 -19 16 -9 -1 -16 3 -16 9 0 6 -3 7 -7
4 -3 -4 -12 1 -20 11 -9 10 -12 11 -7 2 4 -8 -4 -3 -19 11 -15 14 -46 34 -69
45 -24 10 -46 23 -50 29 -4 5 -8 6 -8 2 0 -5 -7 -2 -15 5 -26 23 -40 33 -65
45 -14 7 -47 26 -75 43 -27 17 -59 35 -70 40 -11 6 -33 18 -50 28 -71 43 -125
71 -125 64 0 -4 -4 -1 -9 6 -7 12 -64 46 -158 94 l-43 22 0 434 0 434 33 -20
c17 -11 57 -33 87 -49 30 -17 73 -40 95 -53 22 -12 63 -35 90 -50 28 -15 75
-42 105 -60 30 -19 71 -42 90 -52 19 -10 49 -27 65 -38 17 -11 44 -26 60 -34
33 -17 70 -38 128 -74 33 -21 52 -28 80 -31 4 -1 8 -202 9 -448 l3 -448 3 435
c1 239 0 445 -3 458 -3 12 -10 22 -16 22 -6 0 -86 43 -177 96 -92 53 -255 146
-362 207 -107 60 -217 122 -243 138 -27 16 -53 29 -58 29 -6 0 -8 -175 -7
-457z"/>
<path d="M6065 2701 c-6 -5 -93 -56 -195 -111 -102 -56 -261 -148 -355 -205
-187 -113 -228 -135 -265 -145 -23 -6 -25 -12 -30 -81 -8 -113 4 -857 13 -829
4 14 6 221 5 462 -2 240 0 432 3 426 7 -10 123 44 184 86 17 12 32 21 35 21 6
1 51 28 92 56 15 11 30 19 32 19 3 0 32 17 63 37 32 20 83 50 113 66 30 16 75
41 100 55 25 14 73 40 107 58 34 18 72 39 84 47 47 33 47 32 48 -405 2 -322
-1 -413 -11 -426 -11 -13 -11 -14 1 -8 9 6 12 5 9 -5 -3 -8 -13 -13 -22 -13
-9 1 -16 -2 -16 -8 0 -5 -5 -6 -10 -3 -10 6 -72 -31 -78 -47 -2 -5 -8 -6 -13
-2 -5 3 -9 0 -9 -6 0 -6 -5 -8 -10 -5 -6 3 -13 -1 -16 -9 -3 -9 -11 -13 -17
-9 -5 3 -15 -1 -21 -9 -6 -8 -15 -16 -21 -17 -28 -4 -45 -13 -40 -22 3 -5 0
-6 -8 -3 -8 3 -20 -2 -27 -11 -7 -8 -18 -15 -26 -15 -7 0 -19 -9 -27 -20 -8
-11 -17 -17 -20 -13 -4 3 -7 0 -7 -7 0 -7 -3 -10 -7 -7 -3 4 -12 -1 -20 -11
-10 -11 -12 -12 -8 -2 4 8 -1 6 -9 -4 -9 -11 -24 -20 -33 -21 -27 -2 -84 -41
-75 -50 4 -4 -1 -5 -11 -2 -10 4 -16 3 -12 -2 6 -11 -11 -23 -34 -25 -21 -1
-81 -38 -81 -49 0 -4 -5 -5 -12 -1 -7 5 -8 3 -3 -6 6 -10 4 -12 -9 -7 -10 4
-15 3 -11 -3 3 -6 -1 -10 -11 -10 -9 0 -23 -8 -31 -17 -8 -10 -12 -13 -9 -7 3
7 -11 3 -32 -7 -20 -11 -35 -22 -34 -26 2 -3 -2 -9 -9 -14 -8 -4 -11 -10 -9
-13 3 -2 131 70 285 160 154 90 346 201 427 246 l148 83 -3 450 c-2 393 -4
450 -17 453 -9 1 -20 -2 -25 -7z"/>
</g>
</svg>
